<svg width="24" height="24" viewBox="0 0 24 24" fill="none" xmlns="http://www.w3.org/2000/svg">
<path d="M12.0002 16C12.7913 16 13.5647 15.7654 14.2225 15.3259C14.8803 14.8864 15.393 14.2616 15.6957 13.5307C15.9985 12.7998 16.0777 11.9956 15.9233 11.2196C15.769 10.4437 15.388 9.73098 14.8286 9.17157C14.2692 8.61216 13.5565 8.2312 12.7806 8.07686C12.0046 7.92252 11.2004 8.00173 10.4695 8.30448C9.73856 8.60723 9.11385 9.11992 8.67432 9.77772C8.2348 10.4355 8.0002 11.2089 8.0002 12C8.0002 13.0609 8.42163 14.0783 9.17177 14.8284C9.92192 15.5786 10.9393 16 12.0002 16ZM12.0002 10C12.3958 10 12.7824 10.1173 13.1113 10.3371C13.4402 10.5568 13.6966 10.8692 13.848 11.2346C13.9993 11.6001 14.0389 12.0022 13.9618 12.3902C13.8846 12.7781 13.6941 13.1345 13.4144 13.4142C13.1347 13.6939 12.7783 13.8844 12.3904 13.9616C12.0024 14.0387 11.6003 13.9991 11.2348 13.8478C10.8694 13.6964 10.557 13.44 10.3373 13.1111C10.1175 12.7822 10.0002 12.3956 10.0002 12C10.0002 11.4696 10.2109 10.9609 10.586 10.5858C10.9611 10.2107 11.4698 10 12.0002 10ZM3.5002 12.877L2.5002 13.456C2.27267 13.5872 2.07323 13.762 1.91325 13.9703C1.75327 14.1787 1.6359 14.4165 1.56783 14.6702C1.49976 14.9239 1.48234 15.1885 1.51655 15.4489C1.55075 15.7093 1.63593 15.9605 1.7672 16.188L3.2562 18.766C3.38736 18.9939 3.56217 19.1937 3.77062 19.3539C3.97907 19.5142 4.21707 19.6317 4.471 19.6999C4.72494 19.7681 4.98983 19.7855 5.25051 19.7512C5.51119 19.7169 5.76255 19.6315 5.9902 19.5L7.0002 18.916C7.15434 18.829 7.3287 18.7842 7.50568 18.7861C7.68266 18.7881 7.856 18.8367 8.0082 18.927C8.15851 19.014 8.28334 19.139 8.37021 19.2894C8.45708 19.4398 8.50294 19.6103 8.5032 19.784V21C8.5032 21.5304 8.71391 22.0391 9.08899 22.4142C9.46406 22.7893 9.97277 23 10.5032 23H13.5032C14.0336 23 14.5423 22.7893 14.9174 22.4142C15.2925 22.0391 15.5032 21.5304 15.5032 21V19.782C15.5059 19.6075 15.5537 19.4367 15.6421 19.2862C15.7306 19.1358 15.8565 19.0108 16.0076 18.9236C16.1587 18.8363 16.3299 18.7898 16.5044 18.7884C16.6789 18.7871 16.8508 18.8311 17.0032 18.916L18.0122 19.498C18.4716 19.7632 19.0175 19.8351 19.5298 19.6978C20.0421 19.5605 20.479 19.2253 20.7442 18.766L22.2322 16.188C22.3635 15.9605 22.4487 15.7093 22.4829 15.4489C22.5171 15.1885 22.4996 14.9239 22.4316 14.6702C22.3635 14.4165 22.2461 14.1787 22.0862 13.9703C21.9262 13.762 21.7267 13.5872 21.4992 13.456L20.4992 12.877C20.3441 12.7867 20.216 12.6565 20.1281 12.5001C20.0402 12.3436 19.9957 12.1664 19.9992 11.987C19.9996 11.8118 20.0459 11.6398 20.1337 11.4881C20.2214 11.3365 20.3475 11.2106 20.4992 11.123L21.4992 10.544C21.7267 10.4128 21.9262 10.238 22.0862 10.0297C22.2461 9.82132 22.3635 9.58352 22.4316 9.32982C22.4996 9.07613 22.5171 8.81151 22.4829 8.55108C22.4487 8.29065 22.3635 8.03951 22.2322 7.812L20.7422 5.234C20.611 5.00639 20.4363 4.80684 20.228 4.64677C20.0197 4.48669 19.782 4.36922 19.5283 4.30106C19.2746 4.23289 19.0099 4.21538 18.7494 4.24952C18.489 4.28365 18.2378 4.36877 18.0102 4.5L17.0002 5.083C16.8477 5.16828 16.6757 5.21248 16.501 5.21125C16.3263 5.21002 16.1549 5.1634 16.0037 5.07598C15.8524 4.98856 15.7265 4.86332 15.6382 4.71256C15.55 4.5618 15.5024 4.39069 15.5002 4.216V3C15.5002 2.46957 15.2895 1.96086 14.9144 1.58579C14.5393 1.21071 14.0306 1 13.5002 1H10.5002C9.96977 1 9.46106 1.21071 9.08599 1.58579C8.71092 1.96086 8.5002 2.46957 8.5002 3V4.294C8.50017 4.44408 8.4606 4.5915 8.38546 4.72141C8.31032 4.85132 8.20227 4.95914 8.0722 5.034L7.9182 5.123C7.78805 5.19699 7.64091 5.23589 7.4912 5.23589C7.34149 5.23589 7.19435 5.19699 7.0642 5.123L5.9902 4.5C5.76271 4.36853 5.51154 4.28317 5.25104 4.24881C4.99055 4.21444 4.72584 4.23174 4.47203 4.29972C4.21823 4.3677 3.9803 4.48502 3.77186 4.64499C3.56341 4.80495 3.38853 5.00442 3.2572 5.232L1.7692 7.813C1.50423 8.27215 1.43239 8.81771 1.56946 9.3298C1.70653 9.84189 2.0413 10.2786 2.5002 10.544L3.5002 11.122C3.65516 11.2127 3.78316 11.3431 3.87104 11.4997C3.95891 11.6563 4.0035 11.8335 4.0002 12.013C4.00046 12.1883 3.95434 12.3606 3.86653 12.5123C3.77872 12.6641 3.65233 12.7899 3.5002 12.877ZM4.5002 9.39L3.5002 8.812L4.9902 6.234L6.0642 6.854C6.49779 7.10317 6.98912 7.23429 7.4892 7.23429C7.98928 7.23429 8.48062 7.10317 8.9142 6.854L9.0682 6.766C9.50244 6.51541 9.86326 6.15519 10.1146 5.72137C10.3659 5.28755 10.4988 4.79535 10.5002 4.294V3H13.5002V4.216C13.5023 4.74183 13.6422 5.25793 13.9059 5.71284C14.1697 6.16775 14.548 6.54558 15.0033 6.80864C15.4586 7.0717 15.975 7.21082 16.5008 7.21211C17.0266 7.2134 17.5436 7.07682 18.0002 6.816L19.0072 6.234L20.5002 8.812L19.5002 9.39C19.0449 9.65664 18.6672 10.0378 18.4048 10.4956C18.1424 10.9534 18.0043 11.4718 18.0043 11.9995C18.0043 12.5272 18.1424 13.0456 18.4048 13.5034C18.6672 13.9612 19.0449 14.3424 19.5002 14.609L20.5002 15.188L19.0122 17.766L18.0002 17.184C17.5436 16.9232 17.0266 16.7866 16.5008 16.7879C15.975 16.7892 15.4586 16.9283 15.0033 17.1914C14.548 17.4544 14.1697 17.8322 13.9059 18.2872C13.6422 18.7421 13.5023 19.2582 13.5002 19.784V21H10.5002V19.784C10.4987 19.2579 10.3592 18.7415 10.0956 18.2862C9.83202 17.8309 9.45355 17.4528 8.99805 17.1897C8.54254 16.9265 8.02595 16.7874 7.49988 16.7864C6.97381 16.7855 6.4567 16.9225 6.0002 17.184L4.9932 17.766L3.5002 15.188L4.5002 14.609C4.95554 14.3424 5.33318 13.9612 5.59561 13.5034C5.85803 13.0456 5.9961 12.5272 5.9961 11.9995C5.9961 11.4718 5.85803 10.9534 5.59561 10.4956C5.33318 10.0378 4.95554 9.65664 4.5002 9.39Z" fill="black"/>
</svg>
